<?xml version="1.0" standalone="no"?>
<!DOCTYPE svg PUBLIC "-//W3C//DTD SVG 20010904//EN"
 "http://www.w3.org/TR/2001/REC-SVG-20010904/DTD/svg10.dtd">
<svg version="1.0" xmlns="http://www.w3.org/2000/svg"
 width="630.000000pt" height="630.000000pt" viewBox="0 0 630.000000 630.000000"
 preserveAspectRatio="xMidYMid meet">
<metadata>
Created by potrace 1.14, written by Peter Selinger 2001-2017
</metadata>
<g transform="translate(0.000000,630.000000) scale(0.100000,-0.100000)"
fill="#000000" stroke="none">
<path d="M0 3150 l0 -3150 3150 0 3150 0 0 3150 0 3150 -3150 0 -3150 0 0
-3150z m3230 1811 c0 -10 -13 -22 -32 -29 -18 -7 -44 -20 -56 -30 -24 -18 -24
-19 62 -31 47 -7 86 -17 86 -23 0 -5 10 -8 23 -7 12 1 29 -1 37 -4 8 -3 40
-10 70 -14 53 -8 55 -9 58 -42 3 -25 -2 -37 -20 -49 -13 -9 -25 -17 -28 -17
-14 -2 -110 -51 -110 -57 0 -3 25 -10 55 -13 30 -4 55 -12 55 -17 0 -5 8 -8
18 -6 9 1 22 0 27 -4 6 -3 55 -13 110 -23 55 -10 105 -22 111 -27 7 -5 17 -7
24 -6 8 2 14 -12 17 -38 3 -36 1 -42 -22 -52 -14 -6 -25 -16 -25 -22 0 -5 -5
-10 -10 -10 -23 0 -90 -54 -90 -72 0 -11 5 -16 10 -13 14 9 233 -35 241 -48 4
-5 14 -7 23 -4 8 3 18 2 21 -3 3 -5 -3 -10 -12 -13 -10 -2 0 -2 22 0 22 2 65
-3 95 -10 l55 -13 -3 -64 c-3 -48 -9 -70 -23 -85 -20 -20 -20 -20 -17 7 2 15
7 30 11 34 4 4 7 22 7 39 0 35 -21 60 -44 52 -7 -3 -17 -2 -22 3 -5 4 -49 16
-99 25 -49 9 -95 21 -102 27 -7 6 -20 8 -28 4 -8 -3 -15 -1 -15 4 0 5 6 11 13
13 6 2 0 3 -16 1 -15 -2 -61 3 -103 12 l-75 16 -52 -36 c-29 -20 -55 -36 -58
-36 -3 0 -3 20 1 45 7 44 -1 57 -35 60 -5 0 -14 3 -20 6 -5 4 -50 14 -100 24
-49 9 -97 20 -105 23 -8 3 -19 7 -25 7 -5 1 -17 5 -26 9 -9 4 -32 8 -52 9 -20
2 -39 6 -43 10 -13 12 -51 8 -64 -8 -7 -9 -15 -13 -18 -11 -3 3 -17 -3 -31
-13 -14 -9 -63 -35 -108 -57 -72 -34 -82 -42 -83 -65 0 -25 -2 -26 -55 -25
l-55 0 0 36 1 35 139 69 c77 39 140 72 140 75 0 3 -55 17 -123 30 -67 13 -127
28 -134 33 -6 5 -38 12 -70 15 -32 3 -64 10 -70 16 -9 6 -17 6 -26 -2 -17 -14
-27 -5 -27 24 0 26 14 39 50 50 14 4 48 17 75 30 28 12 69 30 93 40 23 10 42
21 42 25 0 3 -56 16 -125 29 -153 28 -198 46 -164 67 6 3 14 2 18 -3 3 -5 49
-17 101 -27 52 -9 105 -22 117 -28 13 -6 26 -8 30 -5 3 4 11 3 17 -2 19 -16
60 -15 100 2 21 9 41 17 45 17 3 0 26 11 51 24 25 13 57 26 73 30 15 3 27 11
27 17 0 6 -9 8 -20 4 -12 -4 -26 -2 -33 3 -7 5 -61 17 -120 28 -109 19 -137
28 -125 40 9 8 199 -24 215 -37 6 -6 20 -9 30 -8 10 1 25 0 33 -4 38 -14 78
-15 97 -2 11 8 47 24 79 36 33 12 63 25 68 30 13 11 26 1 26 -20z m427 -108
c-3 -10 -5 -4 -5 12 0 17 2 24 5 18 2 -7 2 -21 0 -30z m463 -93 c0 -20 -7 -33
-22 -40 -21 -10 -22 -10 -5 4 10 8 18 23 17 33 -3 23 -1 33 5 33 3 0 5 -13 5
-30z m-402 0 c64 -12 126 -25 137 -30 11 -5 36 -12 55 -15 66 -12 66 -13 62
-50 -3 -24 -13 -41 -32 -55 -31 -22 -51 -27 -32 -8 7 7 12 29 12 49 l0 37 -52
7 c-29 4 -59 12 -65 17 -7 6 -19 8 -27 5 -7 -3 -17 -2 -22 3 -5 4 -40 13 -79
19 -88 15 -105 20 -105 32 0 13 16 12 148 -11z m352 -14 c0 -2 -7 -7 -16 -10
-8 -3 -12 -2 -9 4 6 10 25 14 25 6z m14 -61 c3 -9 11 -15 18 -14 7 1 20 0 28
-4 8 -3 71 -15 140 -27 69 -12 134 -25 145 -30 11 -5 32 -11 46 -14 26 -6 26
-7 17 -58 -5 -29 -16 -60 -24 -68 -13 -13 -14 -8 -9 40 6 53 6 55 -21 67 -15
7 -82 22 -148 34 -67 12 -125 25 -131 29 -5 4 -31 11 -57 14 -44 7 -47 9 -35
27 14 23 23 24 31 4z m-69 -25 c-3 -5 -12 -10 -18 -10 -7 0 -6 4 3 10 19 12
23 12 15 0z m-1635 -61 c0 -27 -6 -33 -47 -50 -27 -12 -73 -33 -103 -48 -48
-24 -55 -31 -53 -55 2 -23 -1 -27 -15 -21 -9 4 -32 9 -49 12 -29 5 -33 10 -33
35 0 22 6 31 21 35 12 4 42 17 66 30 24 12 48 23 53 23 5 0 41 16 82 34 40 19
74 35 76 35 1 1 2 -13 2 -30z m2321 -44 c46 -9 91 -19 99 -22 8 -3 23 -5 33
-4 10 1 24 -2 31 -8 6 -6 46 -15 87 -22 40 -6 78 -15 82 -19 8 -7 -17 -178
-30 -210 -3 -8 -5 -21 -4 -28 1 -8 -2 -19 -7 -25 -5 -7 -16 -51 -23 -99 -9
-58 -18 -88 -26 -88 -15 0 -17 33 -4 58 6 9 20 76 32 147 12 72 26 136 31 142
6 7 8 19 5 28 -4 8 -2 17 3 20 21 13 8 23 -37 30 -27 4 -52 10 -58 15 -5 4
-68 18 -140 30 -71 13 -134 27 -139 32 -6 4 -20 8 -33 8 -16 0 -21 4 -17 15 8
19 12 19 115 0z m-795 -24 c5 -5 62 -19 128 -31 65 -12 126 -25 135 -30 9 -4
42 -14 75 -20 42 -9 55 -15 47 -23 -6 -6 -11 -26 -11 -43 0 -45 -16 -84 -35
-84 -17 0 -21 35 -5 45 6 3 10 21 10 39 l0 32 -97 18 c-54 10 -102 22 -108 26
-5 4 -56 16 -112 26 -62 11 -103 23 -103 30 0 22 57 32 76 15z m-1906 -126
c-6 -7 -29 -20 -52 -29 -24 -10 -65 -28 -93 -41 -27 -12 -62 -28 -77 -33 -23
-10 -26 -15 -22 -49 5 -47 24 -347 24 -380 0 -13 -6 -23 -14 -23 -7 0 -25 -9
-39 -20 -14 -11 -27 -20 -30 -20 -2 0 -10 97 -17 215 -7 118 -17 215 -21 215
-5 0 -9 17 -9 38 0 37 7 44 70 67 3 1 23 9 45 19 22 10 63 28 90 41 28 12 66
28 85 35 19 7 39 17 45 22 13 12 27 -42 15 -57z m2519 -16 c58 -12 111 -24
116 -29 6 -4 56 -15 112 -25 57 -10 108 -22 113 -25 12 -8 -14 -192 -31 -223
-5 -10 -7 -27 -4 -38 4 -10 2 -19 -3 -19 -5 0 -15 -40 -22 -90 -7 -49 -17 -90
-21 -90 -13 0 -11 48 2 56 6 3 8 15 6 26 -3 11 -2 28 3 37 17 33 57 301 46
310 -6 5 -31 12 -56 16 -25 4 -50 12 -57 17 -6 5 -17 8 -25 7 -7 -1 -20 1 -28
4 -8 3 -64 15 -125 27 -114 22 -158 37 -149 52 7 11 0 11 123 -13z m-1989
-108 c0 -34 -4 -40 -32 -51 -18 -7 -38 -18 -43 -24 -6 -6 -37 -24 -70 -41
l-60 -30 3 -211 4 -212 -46 -31 c-24 -17 -49 -31 -55 -31 -7 0 -11 29 -11 78
0 44 -3 159 -6 258 l-6 179 98 49 c55 27 123 61 153 77 30 16 58 29 63 29 4 0
8 -17 8 -39z m1761 -76 c46 -9 90 -22 96 -27 7 -6 22 -8 33 -5 11 3 20 1 20
-4 0 -5 -6 -9 -12 -9 -9 0 -8 -4 2 -10 8 -5 26 -9 40 -9 l25 1 -25 8 c-40 13
0 10 68 -4 35 -8 66 -17 70 -21 4 -5 0 -6 -9 -2 -9 3 -38 8 -65 11 l-49 5 45
-10 c25 -6 53 -15 62 -20 27 -14 38 -11 32 9 -5 13 -4 14 4 3 6 -8 19 -12 32
-8 20 5 21 3 16 -26 -3 -18 -8 -54 -12 -82 -3 -27 -10 -54 -14 -60 -4 -5 -7
-23 -6 -38 1 -16 -1 -30 -5 -33 -4 -2 -15 -58 -25 -124 -13 -89 -21 -120 -32
-120 -10 0 -12 5 -6 18 4 9 8 28 9 42 2 14 5 32 8 40 3 8 13 62 22 120 9 58
21 114 27 126 5 12 9 30 7 40 -1 10 2 27 6 38 10 23 -6 33 -65 42 -25 4 -51
11 -57 16 -7 6 -20 8 -28 4 -8 -3 -15 -2 -15 2 0 4 -42 16 -92 26 -51 10 -98
23 -105 28 -7 5 -17 7 -22 4 -5 -4 -12 -2 -16 4 -3 5 -17 10 -30 10 -36 0 -54
10 -48 26 3 9 11 13 17 11 7 -3 50 -13 97 -22z m-1181 -81 c0 -37 -4 -47 -20
-51 -11 -3 -20 -9 -20 -14 0 -5 -19 -18 -42 -29 -24 -12 -55 -31 -71 -43 l-27
-23 -7 -206 -6 -206 -46 -34 c-25 -18 -49 -34 -53 -36 -10 -4 -10 151 -1 360
l6 157 36 17 c20 9 40 23 44 30 4 8 13 14 18 14 6 0 34 16 63 35 29 19 57 35
62 35 5 0 20 9 34 20 14 11 26 20 28 20 1 0 2 -21 2 -46z m905 -126 c36 -6 65
-15 65 -20 0 -5 8 -8 18 -6 9 1 22 -1 29 -5 6 -4 46 -14 90 -23 43 -9 83 -20
90 -26 6 -5 17 -8 25 -7 7 1 20 -1 28 -4 8 -4 33 -10 55 -15 31 -6 41 -13 43
-30 2 -12 -2 -22 -8 -22 -8 0 -11 -12 -8 -35 2 -19 1 -35 -2 -35 -4 0 -15 -62
-24 -137 -27 -208 -40 -268 -57 -268 -8 0 -13 6 -11 14 1 7 12 79 23 160 11
80 25 155 30 166 5 11 10 47 11 80 3 53 1 60 -17 63 -11 2 -29 7 -40 12 -18 9
-139 38 -225 55 -19 4 -39 11 -45 15 -5 4 -46 15 -90 25 -44 10 -82 19 -83 21
-2 1 -1 12 3 24 4 13 12 19 21 16 8 -3 44 -11 79 -18z m910 -72 c-2 -11 -14
-75 -25 -141 -12 -66 -26 -128 -31 -138 -5 -10 -7 -22 -4 -27 3 -5 0 -20 -7
-35 -8 -18 -8 -29 -1 -36 8 -8 13 -4 18 12 10 31 32 51 50 47 10 -2 -3 -25
-43 -78 -43 -57 -58 -85 -61 -115 -1 -22 -7 -47 -11 -55 -4 -8 -15 -55 -24
-105 -9 -49 -19 -102 -22 -117 -3 -17 -1 -28 5 -28 6 0 11 6 11 13 1 24 35 58
53 51 15 -5 13 -12 -18 -55 -19 -27 -35 -52 -35 -55 0 -3 -12 -22 -27 -41 -16
-20 -27 -38 -26 -40 1 -1 1 -8 -2 -15 -2 -7 -13 -67 -25 -133 -11 -66 -22
-128 -24 -138 -6 -28 9 -12 34 37 13 25 27 46 31 46 20 0 15 -21 -16 -68 -19
-28 -35 -54 -35 -57 0 -3 -11 -22 -24 -43 -13 -21 -29 -69 -36 -112 -7 -41
-16 -79 -20 -85 -4 -5 -11 -33 -15 -60 -6 -49 -20 -85 -28 -75 -2 3 7 57 19
120 13 63 21 116 19 118 -2 2 -13 -15 -25 -38 -12 -23 -35 -61 -51 -83 -16
-22 -29 -44 -29 -49 0 -6 -6 -24 -14 -41 -8 -18 -24 -88 -36 -157 -23 -133
-27 -147 -41 -133 -10 10 5 113 21 148 5 11 11 38 15 60 6 37 5 39 -9 20 -8
-11 -16 -26 -16 -32 0 -7 -5 -13 -10 -13 -6 0 -15 -11 -20 -25 -6 -14 -29 -54
-53 -88 -40 -57 -45 -70 -61 -177 -9 -63 -22 -123 -27 -133 -5 -10 -7 -22 -4
-27 3 -6 1 -18 -4 -27 -9 -15 -10 -13 -11 12 0 35 27 192 36 206 3 5 1 9 -4 9
-11 0 -82 -103 -82 -119 0 -5 -6 -14 -12 -18 -7 -4 -22 -24 -32 -43 -23 -42
-46 -70 -58 -70 -4 0 -8 20 -8 45 0 41 2 45 24 45 17 0 27 7 32 22 3 12 40 70
80 129 52 75 74 117 74 138 0 16 4 32 9 35 5 3 14 43 21 88 7 46 17 89 23 95
5 7 7 24 5 38 -3 14 -1 28 3 31 10 6 12 44 2 44 -12 0 -43 -33 -43 -47 0 -7
-4 -13 -10 -13 -5 0 -10 -5 -10 -11 0 -6 -20 -39 -45 -73 -25 -35 -45 -68 -45
-74 0 -5 -6 -15 -14 -21 -12 -10 -17 -8 -26 9 -9 16 -9 25 -1 33 6 6 11 21 11
33 0 16 5 21 18 18 12 -3 31 15 67 68 28 40 56 84 63 98 7 14 23 35 34 47 18
19 37 88 52 183 1 8 5 22 8 30 11 26 37 223 32 232 -3 4 -12 8 -19 8 -10 0 -6
13 14 45 18 28 31 66 36 100 3 30 11 57 16 61 6 3 9 18 8 32 -1 15 1 34 4 42
7 18 37 213 37 240 0 10 -9 22 -20 25 -23 7 -24 14 -6 38 10 12 21 15 44 11
28 -6 31 -9 26 -38 -3 -17 -8 -38 -11 -46 -4 -8 -5 -24 -4 -34 2 -10 -2 -28
-8 -40 -10 -21 -54 -277 -48 -282 2 -2 29 30 61 71 36 46 66 75 77 75 11 0 19
-3 19 -7 0 -22 -23 -141 -30 -158 -8 -17 -40 -184 -40 -209 0 -5 9 3 20 17 11
14 20 28 20 32 0 4 20 34 44 66 28 37 47 74 51 101 4 23 11 49 16 58 8 16 49
233 49 262 0 9 -6 18 -12 21 -10 4 -10 8 0 23 40 59 57 90 54 99 -5 13 27 195
38 220 10 22 30 117 30 140 0 8 -8 15 -18 15 -28 0 -34 11 -17 30 23 25 66 15
60 -14z m-3015 -182 c11 -11 11 -14 1 -14 -7 0 -36 -14 -63 -32 -49 -32 -49
-32 -44 -78 3 -25 8 -94 11 -155 3 -60 8 -142 11 -181 l6 -71 49 -12 c45 -12
76 -31 49 -31 -6 0 -28 -12 -50 -26 l-40 -27 0 -68 c0 -37 5 -71 11 -74 6 -4
9 -39 8 -86 -1 -44 0 -81 2 -84 3 -2 3 -22 1 -44 -3 -29 -10 -42 -23 -46 -10
-4 -19 -11 -19 -16 0 -6 -4 -8 -9 -5 -5 3 -11 -1 -15 -9 -7 -19 -46 -19 -71
-1 -11 8 -26 11 -34 8 -10 -4 -13 -1 -8 12 4 9 3 15 -2 12 -13 -8 -141 34
-141 46 0 6 -6 8 -13 5 -7 -3 -21 1 -32 9 -10 8 -27 14 -38 14 -16 0 -17 2 -3
15 8 8 19 15 25 15 6 0 11 5 11 10 0 6 9 10 20 10 11 0 20 -4 20 -8 0 -4 21
-14 48 -21 69 -20 135 -53 122 -61 -6 -3 4 -6 22 -6 18 0 42 -4 52 -9 17 -7
18 -5 11 16 -6 20 -32 299 -34 374 -1 24 -38 44 -136 76 -38 12 -74 25 -80 29
-5 5 -14 9 -20 10 -5 2 -14 4 -20 6 -5 2 -37 12 -69 23 l-60 19 36 15 c20 8
39 20 42 26 11 17 43 13 99 -12 29 -13 75 -30 102 -37 28 -7 55 -17 62 -22 7
-6 17 -7 23 -3 12 7 14 102 1 109 -4 3 -11 63 -15 133 -4 71 -9 147 -12 170
-6 39 -4 43 20 49 14 3 30 11 34 18 22 35 119 42 152 10z m2843 0 c12 -4 14
-15 10 -42 -3 -20 -9 -39 -13 -42 -4 -3 -17 -68 -29 -145 -13 -77 -28 -145
-33 -152 -5 -7 -6 -22 -2 -35 6 -20 5 -21 -10 -9 -17 15 -21 41 -7 56 4 6 18
71 30 145 12 74 26 143 32 153 12 22 4 37 -22 37 -22 0 -24 11 -7 28 13 13 28
15 51 6z m-2344 -155 c38 -11 56 -29 29 -29 -6 0 -33 -14 -59 -31 l-48 -30 5
-177 c5 -162 4 -179 -13 -197 -24 -25 -63 -48 -71 -41 -3 3 -4 35 -3 71 2 41
-2 65 -8 65 -7 0 -11 52 -11 156 0 149 1 157 23 175 12 10 27 19 32 19 6 0 21
9 35 20 14 11 30 18 36 16 7 -3 30 -10 53 -17z m1064 -177 c7 2 14 -1 17 -7 7
-19 25 -33 33 -28 5 3 4 -3 -1 -13 -15 -27 -96 -102 -89 -83 3 9 9 54 13 100
5 46 10 71 12 56 2 -15 9 -26 15 -25z m869 -217 c-2 -27 -8 -55 -13 -61 -4 -5
-5 -20 -2 -33 3 -13 2 -26 -4 -30 -8 -5 -44 -217 -46 -268 0 -7 -4 -13 -8 -13
-10 0 -19 54 -10 60 7 5 51 293 51 332 0 10 -12 19 -32 23 l-31 7 24 19 c13
11 35 18 49 17 24 -3 25 -6 22 -53z m-1951 -177 c22 -6 39 -14 39 -18 0 -3
-21 -22 -46 -40 -34 -27 -44 -39 -40 -55 3 -11 6 -104 6 -207 l0 -188 28 -6
c15 -4 36 -12 47 -18 11 -7 49 -22 85 -35 36 -12 72 -25 80 -28 8 -4 17 -7 20
-7 3 -1 14 -7 25 -13 11 -5 38 -16 60 -23 22 -7 49 -18 61 -25 21 -13 21 -13
27 202 l7 216 52 48 c44 38 54 44 56 29 2 -12 15 -21 35 -26 18 -3 41 -11 52
-17 11 -6 22 -12 25 -13 3 0 12 -3 20 -7 8 -3 47 -15 85 -28 39 -12 75 -25 80
-29 6 -4 44 -17 85 -30 41 -13 79 -27 85 -32 5 -5 37 19 77 59 l68 67 -6 -55
c-6 -49 -11 -59 -67 -116 -66 -68 -70 -69 -147 -35 -19 8 -37 16 -40 17 -3 1
-12 4 -20 7 -8 3 -37 13 -65 23 -27 9 -57 19 -65 22 -8 4 -17 7 -20 8 -3 1
-12 5 -20 8 -31 14 -134 47 -144 47 -26 0 -36 -56 -36 -211 l0 -157 -44 -47
c-40 -44 -46 -47 -79 -41 -20 4 -37 10 -39 14 -2 4 -34 18 -73 31 -38 13 -79
29 -90 35 -11 7 -49 22 -85 35 -36 12 -78 29 -94 38 l-29 16 6 -33 c4 -18 7
-106 7 -196 0 -117 3 -164 12 -164 6 0 34 -11 62 -24 56 -25 95 -42 111 -46 6
-1 19 -9 30 -16 11 -8 25 -14 32 -14 7 0 45 -15 84 -34 l71 -34 55 56 54 57
-6 -50 c-5 -42 -14 -57 -55 -99 l-48 -48 -63 29 c-35 17 -86 41 -114 54 -27
13 -54 24 -60 24 -5 1 -19 6 -31 12 -11 7 -38 18 -60 26 -21 8 -47 18 -56 22
-15 6 -18 2 -18 -28 0 -20 5 -39 10 -42 6 -3 10 -34 10 -69 0 -60 -1 -63 -44
-105 l-44 -43 4 51 c2 27 -1 53 -6 56 -6 3 -10 54 -10 113 l0 107 -42 22 c-46
22 -140 66 -148 68 -3 1 -16 6 -30 12 -14 6 -45 19 -70 28 -25 10 -49 22 -54
27 -25 22 -31 5 -28 -74 2 -46 8 -87 13 -93 18 -18 8 -53 -24 -89 -35 -37 -53
-47 -44 -21 4 8 2 17 -2 20 -5 2 -12 67 -15 142 -4 76 -9 146 -12 155 -3 9
-22 22 -42 29 -20 6 -57 22 -82 34 -67 34 -119 55 -135 55 -8 0 -15 4 -15 9 0
5 -11 12 -25 15 -30 8 -31 17 -6 40 15 14 24 15 39 7 11 -6 22 -7 26 -4 3 3 6
2 6 -3 0 -6 30 -21 68 -34 37 -13 81 -32 97 -42 59 -36 64 -29 58 80 -3 53 -9
101 -13 105 -4 4 -5 35 -3 68 3 37 0 66 -8 75 -14 17 -5 44 15 44 8 0 21 9 29
20 13 18 16 18 62 5 26 -8 72 -26 101 -40 29 -14 59 -25 66 -25 8 0 22 -6 33
-14 11 -7 22 -14 25 -14 7 -1 38 -12 79 -28 62 -26 61 -28 61 129 0 79 -3 147
-7 150 -4 4 -6 33 -4 65 2 59 16 80 66 102 27 12 32 12 76 -2z m1860 -363 c-5
-5 -13 -43 -19 -84 -6 -41 -15 -78 -20 -83 -9 -9 0 82 13 122 7 21 6 21 -14 3
-12 -9 -21 -23 -21 -30 0 -6 -8 -18 -17 -25 -10 -7 -24 -24 -32 -38 -8 -14
-37 -54 -66 -90 -28 -36 -54 -73 -58 -82 -7 -21 -28 -23 -45 -6 -7 7 -12 8
-12 4 0 -5 -6 -4 -12 2 -7 5 -44 19 -82 31 -38 12 -74 25 -80 30 -6 5 -14 10
-18 10 -9 2 -14 3 -98 31 -36 11 -78 27 -95 35 -16 7 -42 17 -57 20 -36 9 -35
24 5 62 l32 32 60 -20 c33 -11 67 -23 75 -26 8 -3 17 -7 20 -8 3 -1 12 -5 20
-8 8 -3 44 -16 80 -28 36 -11 79 -27 95 -34 17 -7 50 -18 73 -25 38 -10 47 -9
63 6 10 9 19 21 19 26 0 12 132 178 142 178 4 0 8 6 8 14 0 11 5 12 24 3 14
-7 21 -16 17 -22z m-1374 -347 c-3 -8 -6 -5 -6 6 -1 11 2 17 5 13 3 -3 4 -12
1 -19z m36 -25 c-7 -2 -19 -2 -25 0 -7 3 -2 5 12 5 14 0 19 -2 13 -5z m159
-51 c23 -11 70 -30 103 -42 33 -13 78 -31 101 -41 22 -11 45 -19 50 -19 5 0
36 32 69 70 33 39 63 70 67 70 11 0 10 -18 -2 -25 -5 -3 -10 -21 -10 -38 0
-24 -15 -49 -62 -104 -40 -48 -65 -70 -72 -64 -6 4 -29 14 -51 21 -22 7 -49
18 -60 24 -11 7 -49 23 -85 35 -36 13 -88 34 -117 47 -28 13 -58 24 -65 24 -8
0 -24 7 -36 16 l-22 15 27 28 c27 27 29 28 75 16 25 -7 66 -22 90 -33z m1048
-137 c0 -8 -26 -52 -58 -97 -32 -46 -63 -94 -70 -108 -7 -14 -26 -40 -41 -59
l-28 -35 -49 18 c-27 10 -72 29 -101 42 -28 13 -57 24 -63 24 -6 0 -30 9 -53
21 -23 11 -69 29 -101 40 -33 10 -65 24 -73 30 -7 6 -13 8 -13 4 0 -4 -6 -2
-14 4 -19 16 -10 42 21 65 25 18 27 18 77 1 28 -10 53 -21 56 -25 3 -3 36 -16
75 -29 38 -12 75 -27 82 -33 7 -6 13 -7 13 -4 0 4 10 0 22 -8 12 -9 28 -16 36
-16 7 0 31 -9 53 -19 l40 -20 68 92 c37 51 71 100 74 110 8 21 47 23 47 2z
m-1104 -329 c29 -14 56 -26 60 -26 5 0 31 -11 59 -24 50 -24 150 -66 158 -66
8 0 107 128 107 139 0 6 5 11 11 11 24 0 2 -78 -35 -123 -20 -24 -36 -48 -36
-53 0 -5 -8 -17 -19 -26 -10 -8 -20 -21 -23 -28 -3 -9 -15 -6 -43 9 -22 11
-43 21 -48 21 -4 0 -37 14 -72 30 -35 17 -66 30 -68 30 -3 0 -26 10 -53 22
-27 12 -51 23 -54 23 -3 0 -19 9 -37 18 -18 9 -39 17 -48 17 -12 0 -10 8 11
34 31 38 41 38 130 -8z m1034 -128 c0 -6 -25 -48 -55 -93 -30 -45 -55 -85 -55
-89 0 -3 -18 -33 -40 -65 -22 -32 -40 -63 -40 -69 0 -6 -17 -2 -37 8 -46 23
-129 60 -203 89 -30 13 -78 33 -105 46 -28 13 -63 27 -78 30 -39 10 -42 22
-16 59 21 31 24 32 48 20 14 -7 82 -36 151 -64 69 -28 141 -60 160 -69 72 -37
86 -36 119 13 17 25 31 47 31 50 0 3 21 37 47 76 42 64 73 88 73 58z"/>
<path d="M3025 4857 c-16 -7 -36 -17 -43 -24 -7 -7 -30 -18 -51 -24 -20 -6
-47 -19 -60 -28 -23 -17 -22 -18 51 -30 40 -8 78 -17 83 -21 6 -5 53 -16 105
-25 52 -10 101 -21 108 -24 19 -11 202 84 202 104 0 6 -60 21 -132 34 -73 13
-137 27 -143 31 -19 14 -90 18 -120 7z"/>
<path d="M2745 4731 c-22 -8 -41 -19 -43 -23 -2 -4 -7 -8 -12 -8 -5 0 -41 -15
-80 -33 -55 -25 -69 -36 -58 -44 7 -6 74 -23 148 -38 74 -15 140 -30 145 -34
6 -5 28 -11 50 -14 35 -6 55 1 157 51 64 31 116 61 114 67 -1 5 -47 17 -102
27 -54 10 -106 21 -114 25 -8 3 -22 8 -30 9 -8 2 -42 9 -75 17 -52 11 -65 11
-100 -2z"/>
<path d="M3220 4608 c-25 -15 -73 -42 -107 -59 -35 -16 -63 -36 -63 -44 0 -9
6 -12 15 -9 8 4 22 1 30 -6 7 -6 22 -10 32 -8 10 1 23 0 28 -4 6 -3 60 -15
120 -27 61 -13 117 -26 125 -30 49 -26 80 -23 134 13 30 20 57 36 60 36 11 0
81 52 89 66 6 11 1 14 -22 14 -16 0 -33 5 -36 10 -4 6 -14 10 -23 8 -10 -1
-22 0 -27 4 -6 3 -64 16 -130 28 -66 12 -123 24 -128 27 -22 14 -57 7 -97 -19z"/>
<path d="M3618 4343 c7 -3 16 -2 19 1 4 3 -2 6 -13 5 -11 0 -14 -3 -6 -6z"/>
<path d="M3668 4333 c6 -2 18 -2 25 0 6 3 1 5 -13 5 -14 0 -19 -2 -12 -5z"/>
<path d="M4258 4193 c7 -3 16 -2 19 1 4 3 -2 6 -13 5 -11 0 -14 -3 -6 -6z"/>
<path d="M4640 4096 c0 -2 7 -6 15 -10 8 -3 15 -1 15 4 0 6 -7 10 -15 10 -8 0
-15 -2 -15 -4z"/>
<path d="M4562 3092 c-29 -42 -62 -88 -72 -102 -12 -15 -24 -55 -30 -100 -6
-41 -15 -84 -20 -95 -13 -27 -41 -208 -33 -215 3 -3 7 0 9 5 3 6 20 33 39 60
93 131 104 152 116 221 6 38 16 74 21 81 5 6 8 20 7 30 -1 10 0 25 4 33 6 18
27 128 27 147 0 26 -16 11 -68 -65z"/>
<path d="M4660 2896 c-16 -25 -30 -47 -30 -50 0 -3 -16 -28 -35 -54 -19 -27
-32 -51 -29 -55 3 -3 1 -13 -5 -24 -5 -10 -17 -63 -26 -118 -9 -55 -20 -112
-25 -127 -5 -14 -6 -29 -3 -32 6 -6 83 97 83 110 0 4 11 24 24 43 15 24 29 70
41 136 9 55 19 107 22 115 3 8 7 20 8 26 2 6 6 26 10 43 4 17 4 31 1 31 -3 0
-19 -20 -36 -44z"/>
<path d="M4492 2646 c-18 -24 -32 -47 -32 -51 0 -3 -21 -35 -46 -70 -25 -36
-44 -72 -43 -82 1 -10 -1 -25 -4 -33 -3 -8 -13 -64 -22 -125 -9 -60 -21 -118
-26 -127 -12 -23 -11 -28 1 -28 6 0 14 10 19 23 5 12 36 62 70 111 37 54 61
100 61 116 0 33 9 43 27 29 8 -8 13 -8 13 -1 0 6 -5 12 -12 14 -13 5 18 213
35 236 7 8 7 16 0 23 -6 6 -20 -6 -41 -35z"/>
<path d="M1485 2811 c-19 -8 -19 -8 2 -19 12 -7 28 -12 37 -12 8 0 22 -7 30
-16 9 -8 16 -13 16 -9 0 3 14 -2 30 -10 17 -9 35 -13 40 -10 5 3 11 1 15 -5 4
-6 11 -8 16 -5 9 6 -27 40 -67 62 -17 9 -24 9 -33 0 -9 -9 -11 -8 -6 6 5 11 2
17 -6 17 -8 0 -23 2 -34 5 -11 2 -29 0 -40 -4z m65 -21 c0 -5 -2 -10 -4 -10
-3 0 -8 5 -11 10 -3 6 -1 10 4 10 6 0 11 -4 11 -10z m84 -41 c-3 -5 -10 -7
-15 -3 -5 3 -7 10 -3 15 3 5 10 7 15 3 5 -3 7 -10 3 -15z"/>
<path d="M1821 2760 c-13 -11 -19 -20 -14 -20 6 0 18 9 28 20 23 25 17 25 -14
0z"/>
<path d="M1884 2494 c3 -71 9 -156 12 -190 l6 -60 70 -32 c39 -18 76 -32 82
-32 6 0 21 -7 33 -15 12 -9 53 -27 90 -41 37 -14 72 -30 78 -35 5 -5 12 -9 15
-9 4 0 5 84 2 188 -5 188 -7 200 -42 208 -3 0 -16 5 -30 11 -14 6 -47 18 -75
27 -27 10 -54 21 -60 25 -5 5 -39 19 -75 31 -36 12 -76 29 -89 37 l-24 15 7
-128z"/>
<path d="M4195 2630 c3 -5 8 -10 11 -10 2 0 4 5 4 10 0 6 -5 10 -11 10 -5 0
-7 -4 -4 -10z"/>
</g>
</svg>
